<svg version="1.1" id="Layer_1" xmlns="http://www.w3.org/2000/svg" xmlns:xlink="http://www.w3.org/1999/xlink" x="0px" y="0px"
	 width="100%" viewBox="0 0 60 60" enable-background="new 0 0 60 60" xml:space="preserve">
<path fill="#000000" opacity="1.000000" stroke="none" 
	d="
M61.000000,22.999712 
	C61.000000,35.999775 61.000000,48.499771 61.000000,60.999825 
	C41.000084,60.999886 21.000164,60.999886 1.000185,60.999943 
	C1.000123,41.000088 1.000123,21.000174 1.000062,1.000196 
	C20.999908,1.000130 40.999817,1.000130 60.999863,1.000065 
	C61.000000,8.166549 61.000000,15.333098 61.000000,22.999712 
M50.883873,16.352619 
	C48.286213,13.579638 45.786331,10.705449 43.057095,8.068656 
	C41.184879,6.259854 38.993790,4.781107 36.021202,3.038996 
	C28.860531,3.027763 21.696312,3.146077 14.540693,2.950200 
	C11.006002,2.853442 9.923842,4.247768 9.950264,7.656348 
	C10.071599,23.309338 10.058125,38.964130 9.959933,54.617439 
	C9.939850,57.819103 11.058056,59.078487 14.319053,59.041775 
	C25.142204,58.919930 35.968563,58.913227 46.791512,59.043541 
	C50.160206,59.084103 51.072830,57.625233 51.035301,54.519352 
	C50.884426,42.033363 50.892445,29.545458 50.883873,16.352619 
z"/>
<path fill="#34A853" opacity="1.000000" stroke="none" 
	d="
M50.841743,17.058262 
	C50.892445,29.545458 50.884426,42.033363 51.035301,54.519352 
	C51.072830,57.625233 50.160206,59.084103 46.791512,59.043541 
	C35.968563,58.913227 25.142204,58.919930 14.319053,59.041775 
	C11.058056,59.078487 9.939850,57.819103 9.959933,54.617439 
	C10.058125,38.964130 10.071599,23.309338 9.950264,7.656348 
	C9.923842,4.247768 11.006002,2.853442 14.540693,2.950200 
	C21.696312,3.146077 28.860531,3.027763 36.496181,3.551540 
	C37.086723,16.876387 37.086723,16.876284 49.845177,17.033323 
	C50.177418,17.037413 50.509556,17.049765 50.841743,17.058262 
M18.001486,32.523186 
	C18.001486,35.752995 18.001486,38.982803 18.001486,42.278107 
	C26.715570,42.278107 34.618652,42.278107 42.715805,42.278107 
	C42.715805,36.297405 42.715805,30.587933 42.715805,24.774561 
	C34.406437,24.774561 26.385706,24.774561 18.001001,24.774561 
	C18.001001,27.275528 18.001001,29.410208 18.001486,32.523186 
z"/>
<path fill="#188038" opacity="1.000000" stroke="none" 
	d="
M50.862808,16.705441 
	C50.509556,17.049765 50.177418,17.037413 49.845177,17.033323 
	C37.086723,16.876284 37.086723,16.876387 36.958199,3.609453 
	C38.993790,4.781107 41.184879,6.259854 43.057095,8.068656 
	C45.786331,10.705449 48.286213,13.579638 50.862808,16.705441 
z"/>
<path fill="#FFFFFF" opacity="1.000000" stroke="none" 
	d="
M18.001244,32.034035 
	C18.001001,29.410208 18.001001,27.275528 18.001001,24.774561 
	C26.385706,24.774561 34.406437,24.774561 42.715805,24.774561 
	C42.715805,30.587933 42.715805,36.297405 42.715805,42.278107 
	C34.618652,42.278107 26.715570,42.278107 18.001486,42.278107 
	C18.001486,38.982803 18.001486,35.752995 18.001244,32.034035 
M33.053261,29.826923 
	C34.421371,30.549282 35.743401,31.437750 37.199821,31.841755 
	C37.463776,31.914974 38.278446,30.002876 38.884014,28.490749 
	C38.590145,28.393185 38.296272,28.295620 37.208290,28.075289 
	C36.140991,28.121960 35.073696,28.168633 33.506283,28.143097 
	C33.402843,28.428167 33.299404,28.713238 33.053261,29.826923 
M26.208717,28.078531 
	C25.141422,28.121445 24.074129,28.164358 22.497662,28.125961 
	C22.389076,28.417021 22.280491,28.708078 22.032682,29.831636 
	C23.402922,30.551506 24.726463,31.444260 26.184750,31.838152 
	C26.460033,31.912506 27.271406,30.002131 27.882437,28.491856 
	C27.589052,28.395166 27.295668,28.298479 26.208717,28.078531 
M28.682644,38.460941 
	C29.487698,34.342232 26.376389,35.255211 24.405596,35.477596 
	C23.404654,35.590549 22.558689,37.076881 21.642664,37.942348 
	C21.969494,38.253681 22.296324,38.565014 22.623154,38.876347 
	C24.398064,38.876347 26.172976,38.876347 28.682644,38.460941 
M33.952667,35.488739 
	C33.635715,36.527233 33.318764,37.565727 32.959030,38.744392 
	C35.660488,38.744392 37.596611,38.744392 39.616901,38.744392 
	C40.170952,34.049519 36.828491,35.683094 33.952667,35.488739 
z"/>
<path fill="#35A853" opacity="1.000000" stroke="none" 
	d="
M28.315266,38.668644 
	C26.172976,38.876347 24.398064,38.876347 22.623154,38.876347 
	C22.296324,38.565014 21.969494,38.253681 21.642664,37.942348 
	C22.558689,37.076881 23.404654,35.590549 24.405596,35.477596 
	C26.376389,35.255211 29.487698,34.342232 28.315266,38.668644 
z"/>
<path fill="#36A954" opacity="1.000000" stroke="none" 
	d="
M34.360603,35.425545 
	C36.828491,35.683094 40.170952,34.049519 39.616901,38.744392 
	C37.596611,38.744392 35.660488,38.744392 32.959030,38.744392 
	C33.318764,37.565727 33.635715,36.527233 34.360603,35.425545 
z"/>
<path fill="#35A853" opacity="1.000000" stroke="none" 
	d="
M27.835411,29.007570 
	C27.271406,30.002131 26.460033,31.912506 26.184750,31.838152 
	C24.726463,31.444260 23.402922,30.551506 22.259338,29.303009 
	C22.688587,28.611959 22.862200,28.422924 23.006834,28.207272 
	C24.074129,28.164358 25.141422,28.121445 26.725193,28.293299 
	C27.418385,28.699764 27.616297,28.866266 27.835411,29.007570 
z"/>
<path fill="#36A954" opacity="1.000000" stroke="none" 
	d="
M34.006397,28.215305 
	C35.073696,28.168633 36.140991,28.121960 37.726143,28.289890 
	C38.421322,28.696899 38.619617,28.864508 38.838875,29.007317 
	C38.278446,30.002876 37.463776,31.914974 37.199821,31.841755 
	C35.743401,31.437750 34.421371,30.549282 33.280598,29.304861 
	C33.707081,28.622614 33.873234,28.433449 34.006397,28.215305 
z"/>
<path fill="#49B164" opacity="1.000000" stroke="none" 
	d="
M22.752247,28.166616 
	C22.862200,28.422924 22.688587,28.611959 22.328949,28.886759 
	C22.280491,28.708078 22.389076,28.417021 22.752247,28.166616 
z"/>
<path fill="#49B164" opacity="1.000000" stroke="none" 
	d="
M27.858923,28.749714 
	C27.616297,28.866266 27.418385,28.699764 27.121977,28.354927 
	C27.295668,28.298479 27.589052,28.395166 27.858923,28.749714 
z"/>
<path fill="#49B265" opacity="1.000000" stroke="none" 
	d="
M33.756340,28.179201 
	C33.873234,28.433449 33.707081,28.622614 33.351952,28.890554 
	C33.299404,28.713238 33.402843,28.428167 33.756340,28.179201 
z"/>
<path fill="#49B265" opacity="1.000000" stroke="none" 
	d="
M38.861443,28.749033 
	C38.619617,28.864508 38.421322,28.696899 38.123199,28.351273 
	C38.296272,28.295620 38.590145,28.393185 38.861443,28.749033 
z"/>
</svg>